<svg width="24" height="23" viewBox="0 0 24 23" fill="none" xmlns="http://www.w3.org/2000/svg">
<path d="M19.2365 19.3758C17.3636 21.2486 12.5672 19.4888 8.52352 15.4451C4.47982 11.4014 2.72001 6.60507 4.59288 4.73219L5.82602 3.49905C6.67733 2.64774 8.08008 2.67024 8.95915 3.54931L10.8692 5.45934C11.7482 6.33841 11.7707 7.74116 10.9194 8.59247L10.6546 8.85733C10.1949 9.31696 10.15 10.0584 10.5771 10.576C10.989 11.0752 11.4331 11.5724 11.9147 12.054C12.3962 12.5355 12.8934 12.9796 13.3927 13.3916C13.9102 13.8187 14.6517 13.7737 15.1113 13.3141L15.3762 13.0492C16.2275 12.1979 17.6302 12.2204 18.5093 13.0995L20.4193 15.0095C21.2984 15.8886 21.3209 17.2913 20.4696 18.1426L19.2365 19.3758Z" stroke="white" stroke-width="1.43749"/>
</svg>
