<svg width="11" height="12" viewBox="0 0 11 12" fill="none" xmlns="http://www.w3.org/2000/svg">
<path fill-rule="evenodd" clip-rule="evenodd" d="M0.819366 4.77963C0.819366 2.59244 2.59244 0.819366 4.77963 0.819366C6.96683 0.819366 8.7399 2.59244 8.7399 4.77963C8.7399 6.96683 6.96683 8.7399 4.77963 8.7399C2.59244 8.7399 0.819366 6.96683 0.819366 4.77963ZM4.77963 0C2.13991 0 0 2.13991 0 4.77963C0 7.41935 2.13991 9.55927 4.77963 9.55927C5.8881 9.55927 6.90844 9.18193 7.7192 8.5487L10.2256 11.0551C10.3856 11.2151 10.6449 11.2151 10.8049 11.0551C10.9649 10.8951 10.9649 10.6357 10.8049 10.4757L8.31999 7.99073C9.09004 7.14223 9.55927 6.01573 9.55927 4.77963C9.55927 2.13991 7.41935 0 4.77963 0Z" fill="white"/>
</svg>
