<svg width="20" height="21" viewBox="0 0 20 21" fill="none" xmlns="http://www.w3.org/2000/svg">
<path d="M0.416748 20.5019L1.76399 15.5802C0.932646 14.1395 0.49581 12.5063 0.496608 10.8317C0.499004 5.596 4.75956 1.33545 9.99441 1.33545C12.5348 1.33625 14.9194 2.32572 16.7131 4.12098C18.5059 5.91624 19.493 8.30247 19.4922 10.8404C19.4898 16.0769 15.2293 20.3374 9.99441 20.3374C8.40519 20.3366 6.83912 19.9381 5.45195 19.1811L0.416748 20.5019ZM5.68514 17.4617C7.0236 18.2563 8.30137 18.7322 9.99122 18.733C14.342 18.733 17.8862 15.192 17.8886 10.8388C17.8902 6.47686 14.3628 2.94064 9.99761 2.93905C5.64361 2.93905 2.1018 6.48006 2.10021 10.8325C2.09941 12.6093 2.6201 13.9398 3.49457 15.3318L2.69676 18.2451L5.68514 17.4617ZM14.7789 13.0981C14.7198 12.9991 14.5616 12.94 14.3236 12.821C14.0865 12.702 12.9197 12.1278 12.7017 12.0487C12.4845 11.9697 12.3263 11.9297 12.1674 12.1677C12.0093 12.4049 11.5541 12.94 11.4159 13.0981C11.2778 13.2562 11.1388 13.2762 10.9016 13.1572C10.6644 13.0382 9.89938 12.7882 8.99296 11.9792C8.28779 11.3499 7.81103 10.5729 7.67287 10.3349C7.53471 10.0977 7.65849 9.96916 7.77669 9.85097C7.8837 9.74475 8.01387 9.57385 8.13286 9.43489C8.25345 9.29753 8.29258 9.19851 8.37245 9.03958C8.45151 8.88146 8.41238 8.7425 8.35248 8.62351C8.29259 8.50532 7.81821 7.33696 7.62096 6.86179C7.4277 6.3994 7.23204 6.46169 7.08669 6.4545L6.63149 6.44652C6.47336 6.44652 6.21621 6.50561 5.99899 6.7436C5.78177 6.98158 5.16844 7.55498 5.16844 8.72334C5.16844 9.8917 6.01896 11.0201 6.13715 11.1782C6.25614 11.3364 7.81023 13.7338 10.1909 14.7616C10.7571 15.006 11.1995 15.1521 11.5437 15.2615C12.1123 15.442 12.6298 15.4164 13.0387 15.3557C13.4947 15.2879 14.4426 14.7815 14.6407 14.2273C14.8387 13.6723 14.8387 13.1971 14.7789 13.0981Z" fill="white"/>
</svg>
